<svg width="40" height="40" viewBox="0 0 40 40" fill="none" xmlns="http://www.w3.org/2000/svg">
<path d="M34.1406 0H5.85938C2.62878 0 0 2.62878 0 5.85938V34.1406C0 37.3712 2.62878 40 5.85938 40H34.1406C37.3712 40 40 37.3712 40 34.1406V5.85938C40 2.62878 37.3712 0 34.1406 0ZM14.1406 31.7188H9.45312V15.3125H14.1406V31.7188ZM14.1406 12.9688H9.45312V8.28125H14.1406V12.9688ZM30.5469 31.7188H25.8594V22.3438C25.8594 21.0516 24.8077 20 23.5156 20C22.2235 20 21.1719 21.0516 21.1719 22.3438V31.7188H16.4844V15.3125H21.1719V16.196C22.3999 15.8142 23.1976 15.3125 24.6875 15.3125C27.8665 15.3159 30.5469 18.1677 30.5469 21.5381V31.7188Z" fill="#0172B4"/>
</svg>
