<svg width="14" height="20" viewBox="0 0 14 20" fill="none" xmlns="http://www.w3.org/2000/svg">
<path d="M7 0C3.1332 0 0 2.78799 0 6.2414C0 12.2126 7 20 7 20C7 20 14 12.2114 14 6.2414C14 2.78924 10.8668 0 7 0ZM7 9.69481C5.99748 9.69481 5.03602 9.33901 4.32714 8.70568C3.61825 8.07235 3.22 7.21336 3.22 6.3177C3.22 5.42203 3.61825 4.56305 4.32714 3.92972C5.03602 3.29639 5.99748 2.94059 7 2.94059C8.00252 2.94059 8.96398 3.29639 9.67286 3.92972C10.3818 4.56305 10.78 5.42203 10.78 6.3177C10.78 7.21336 10.3818 8.07235 9.67286 8.70568C8.96398 9.33901 8.00252 9.69481 7 9.69481Z" fill="#00B9B6"/>
</svg>
