<svg width="40" height="40" viewBox="0 0 40 40" fill="none" xmlns="http://www.w3.org/2000/svg">
<path d="M29.9445 0H10.0238C4.50436 0 0 4.50794 0 10.0317V30C0 35.4921 4.50436 40 10.0238 40H29.9762C35.4956 40 40 35.4921 40 29.9683V10.0317C39.9683 4.50794 35.4639 0 29.9445 0ZM29.9128 14.9841C29.9128 15.2063 29.9128 15.4286 29.9128 15.6508C29.9128 22.3175 24.774 30 15.3529 30C12.4663 30 9.77002 29.1746 7.51784 27.746C7.93021 27.7778 8.31086 27.8095 8.72324 27.8095C11.134 27.8095 13.3228 27.0159 15.0674 25.6508C12.8152 25.619 10.9437 24.1587 10.2776 22.1587C10.5948 22.2222 10.912 22.254 11.2292 22.254C11.705 22.254 12.1808 22.1905 12.5932 22.0635C10.3093 21.5873 8.56463 19.5556 8.56463 17.1111V17.0476C9.19905 17.4286 10.0238 17.6508 10.8485 17.6825C9.48454 16.7937 8.56463 15.2381 8.56463 13.4921C8.56463 12.5714 8.8184 11.7143 9.26249 10.9524C11.8002 14 15.5432 16 19.7938 16.2222C19.6987 15.8413 19.6669 15.4603 19.6669 15.0794C19.6669 12.2857 21.9508 10.0317 24.774 10.0317C26.2331 10.0317 27.5654 10.6349 28.517 11.619C29.6907 11.3968 30.7692 10.9841 31.7526 10.381C31.3719 11.5556 30.5472 12.5397 29.5004 13.1746C30.5472 13.0476 31.5305 12.7937 32.4504 12.381C31.7526 13.3968 30.8961 14.2857 29.9128 14.9841Z" fill="#1EA5DD"/>
</svg>
