<svg width="116" height="28" viewBox="0 0 116 28" fill="none" xmlns="http://www.w3.org/2000/svg">
<path d="M17.1039 13.2586C17.1164 12.3258 17.3726 11.4112 17.8489 10.5999C18.3251 9.78857 19.0059 9.10691 19.8278 8.61834C19.3057 7.89732 18.6168 7.30396 17.816 6.88536C17.0152 6.46677 16.1244 6.23449 15.2145 6.20697C13.2735 6.00998 11.3918 7.32994 10.4027 7.32994C9.39447 7.32994 7.8716 6.22652 6.23171 6.25915C5.17099 6.29228 4.13723 6.59051 3.23117 7.12478C2.3251 7.65904 1.57762 8.41113 1.06155 9.30775C-1.17392 13.0499 0.49354 18.5495 2.63494 21.5744C3.70632 23.0555 4.95847 24.7101 6.59687 24.6514C8.20014 24.5871 8.79894 23.6629 10.7342 23.6629C12.6516 23.6629 13.2133 24.6514 14.885 24.6141C16.6054 24.5871 17.6893 23.1263 18.7231 21.6311C19.4929 20.5757 20.0852 19.4093 20.4782 18.175C19.4787 17.7663 18.6258 17.0821 18.0257 16.2078C17.4257 15.3336 17.1051 14.3078 17.1039 13.2586Z" fill="white"/>
<path d="M13.9465 4.21762C14.8845 3.12887 15.3466 1.72947 15.2347 0.316589C13.8016 0.462121 12.4779 1.12435 11.5272 2.17133C11.0623 2.68281 10.7063 3.27784 10.4795 3.92243C10.2527 4.56701 10.1594 5.2485 10.2052 5.92794C10.922 5.93508 11.6311 5.78486 12.2792 5.48861C12.9272 5.19235 13.4973 4.75778 13.9465 4.21762Z" fill="white"/>
<path d="M37.3706 20.9016H31.8994L30.5855 24.6527H28.2681L33.4503 10.7747H35.858L41.0403 24.6527H38.6834L37.3706 20.9016ZM32.466 19.1707H36.8029L34.665 13.083H34.6051L32.466 19.1707Z" fill="white"/>
<path d="M52.2323 19.5943C52.2323 22.7386 50.4917 24.7587 47.865 24.7587C47.1996 24.7923 46.5379 24.6442 45.9555 24.3311C45.3732 24.018 44.8938 23.5527 44.5723 22.9885H44.5226V28.0001H42.3745V14.5346H44.4538V16.2175H44.4933C44.8296 15.656 45.3171 15.1931 45.9038 14.8781C46.4906 14.5631 47.1547 14.4078 47.8255 14.4287C50.4815 14.4288 52.2323 16.4587 52.2323 19.5943ZM50.0244 19.5943C50.0244 17.5458 48.9294 16.199 47.2588 16.199C45.6176 16.199 44.5136 17.5741 44.5136 19.5943C44.5136 21.633 45.6176 22.9983 47.2588 22.9983C48.9294 22.9983 50.0244 21.6614 50.0244 19.5943Z" fill="white"/>
<path d="M63.7507 19.5942C63.7507 22.7385 62.0101 24.7586 59.3834 24.7586C58.718 24.7923 58.0563 24.6441 57.474 24.331C56.8916 24.0179 56.4123 23.5526 56.0907 22.9884H56.041V28H53.8929V14.5345H55.9722V16.2175H56.0117C56.348 15.6559 56.8355 15.193 57.4222 14.878C58.009 14.5631 58.6731 14.4078 59.3439 14.4287C61.9999 14.4287 63.7507 16.4587 63.7507 19.5942ZM61.5428 19.5942C61.5428 17.5457 60.4478 16.1989 58.7772 16.1989C57.136 16.1989 56.032 17.574 56.032 19.5942C56.032 21.6329 57.136 22.9982 58.7772 22.9982C60.4479 22.9982 61.5428 21.6613 61.5428 19.5942H61.5428Z" fill="white"/>
<path d="M71.363 20.7859C71.5221 22.1621 72.9049 23.0658 74.7945 23.0658C76.6051 23.0658 77.9077 22.1621 77.9077 20.9212C77.9077 19.844 77.1221 19.199 75.2618 18.757L73.4016 18.3237C70.7659 17.7082 69.5422 16.5164 69.5422 14.5824C69.5422 12.1879 71.7005 10.5432 74.7652 10.5432C77.7982 10.5432 79.8774 12.1879 79.9474 14.5824H77.779C77.6492 13.1975 76.4651 12.3615 74.7346 12.3615C73.0042 12.3615 71.8201 13.2073 71.8201 14.4384C71.8201 15.4195 72.5764 15.9969 74.4265 16.4388L76.0079 16.8143C78.9529 17.4877 80.1765 18.6314 80.1765 20.6614C80.1765 23.2578 78.0375 24.884 74.6353 24.884C71.4521 24.884 69.3029 23.296 69.1641 20.7858L71.363 20.7859Z" fill="white"/>
<path d="M84.8127 12.14V14.5345H86.8027V16.1792H84.8127V21.7573C84.8127 22.6238 85.2111 23.0277 86.0859 23.0277C86.3222 23.0237 86.5581 23.0076 86.7926 22.9796V24.6145C86.3992 24.6855 85.9995 24.7177 85.5994 24.7105C83.4807 24.7105 82.6544 23.9411 82.6544 21.9788V16.1792H81.1328V14.5345H82.6544V12.14H84.8127Z" fill="white"/>
<path d="M87.9556 19.5941C87.9556 16.4105 89.8948 14.41 92.9188 14.41C95.953 14.41 97.8833 16.4105 97.8833 19.5941C97.8833 22.7864 95.9632 24.7782 92.9188 24.7782C89.8756 24.7782 87.9556 22.7864 87.9556 19.5941ZM95.6945 19.5941C95.6945 17.4102 94.6594 16.1213 92.9188 16.1213C91.1782 16.1213 90.1443 17.4201 90.1443 19.5941C90.1443 21.7867 91.1782 23.0658 92.9188 23.0658C94.6594 23.0658 95.6945 21.7867 95.6945 19.5941H95.6945Z" fill="white"/>
<path d="M99.6533 14.5345H101.702V16.2567H101.752C101.89 15.7188 102.216 15.2435 102.675 14.9106C103.133 14.5777 103.696 14.4075 104.269 14.4286C104.517 14.4278 104.763 14.4538 105.005 14.5061V16.4488C104.692 16.3565 104.366 16.3141 104.04 16.3233C103.728 16.311 103.417 16.3642 103.128 16.4792C102.839 16.5942 102.579 16.7683 102.367 16.9894C102.154 17.2106 101.993 17.4736 101.896 17.7605C101.798 18.0473 101.766 18.3512 101.801 18.6512V24.6527H99.6533L99.6533 14.5345Z" fill="white"/>
<path d="M114.909 21.6808C114.62 23.5176 112.77 24.7782 110.403 24.7782C107.359 24.7782 105.469 22.806 105.469 19.6421C105.469 16.4684 107.369 14.41 110.313 14.41C113.208 14.41 115.029 16.333 115.029 19.4009V20.1125H107.638V20.238C107.604 20.6104 107.652 20.9855 107.779 21.3385C107.906 21.6915 108.11 22.0142 108.376 22.2853C108.643 22.5563 108.965 22.7695 109.323 22.9107C109.681 23.0518 110.066 23.1177 110.453 23.104C110.96 23.15 111.47 23.0363 111.905 22.7799C112.341 22.5235 112.679 22.138 112.87 21.6808L114.909 21.6808ZM107.648 18.661H112.88C112.899 18.3261 112.847 17.9911 112.726 17.6768C112.605 17.3625 112.418 17.0758 112.177 16.8347C111.936 16.5936 111.646 16.4032 111.325 16.2756C111.004 16.1479 110.66 16.0857 110.313 16.0929C109.963 16.0909 109.616 16.1559 109.293 16.2841C108.969 16.4124 108.675 16.6013 108.427 16.8401C108.179 17.0788 107.983 17.3627 107.849 17.6752C107.715 17.9877 107.647 18.3228 107.648 18.661V18.661Z" fill="white"/>
<path d="M32.1967 0.328673C32.647 0.297426 33.0989 0.363207 33.5198 0.521269C33.9407 0.679331 34.32 0.925735 34.6305 1.24271C34.9409 1.55968 35.1747 1.93932 35.3151 2.35424C35.4554 2.76917 35.4987 3.20903 35.4419 3.64211C35.4419 5.77249 34.2511 6.99707 32.1967 6.99707H29.7054V0.328673H32.1967ZM30.7767 6.05402H32.077C32.3988 6.07262 32.7209 6.0216 33.0197 5.90469C33.3185 5.78777 33.5867 5.6079 33.8045 5.37816C34.0224 5.14843 34.1846 4.87461 34.2792 4.57665C34.3738 4.27868 34.3985 3.96406 34.3515 3.6557C34.3951 3.34855 34.3679 3.03588 34.2718 2.7401C34.1757 2.44432 34.0132 2.17275 33.7958 1.94484C33.5784 1.71693 33.3116 1.53833 33.0145 1.42184C32.7173 1.30535 32.3972 1.25385 32.077 1.27102H30.7767V6.05402Z" fill="white"/>
<path d="M36.6521 4.47851C36.6193 4.1478 36.6585 3.81413 36.7669 3.49889C36.8754 3.18366 37.0508 2.89383 37.2819 2.64798C37.513 2.40213 37.7947 2.2057 38.109 2.07128C38.4232 1.93687 38.763 1.86743 39.1066 1.86743C39.4502 1.86743 39.79 1.93687 40.1043 2.07128C40.4185 2.2057 40.7002 2.40213 40.9313 2.64798C41.1624 2.89383 41.3378 3.18366 41.4463 3.49889C41.5548 3.81413 41.5939 4.1478 41.5612 4.47851C41.5945 4.80956 41.5558 5.1437 41.4477 5.45944C41.3395 5.77518 41.1642 6.06555 40.933 6.31188C40.7018 6.55821 40.4199 6.75505 40.1054 6.88976C39.7908 7.02447 39.4506 7.09406 39.1066 7.09406C38.7626 7.09406 38.4224 7.02447 38.1078 6.88976C37.7933 6.75505 37.5114 6.55821 37.2802 6.31188C37.049 6.06555 36.8737 5.77518 36.7656 5.45944C36.6574 5.1437 36.6187 4.80956 36.6521 4.47851ZM40.5046 4.47851C40.5046 3.38768 39.9978 2.74977 39.1083 2.74977C38.2154 2.74977 37.7132 3.38768 37.7132 4.47852C37.7132 5.5781 38.2155 6.21109 39.1083 6.21109C39.9978 6.21108 40.5046 5.57371 40.5046 4.47851H40.5046Z" fill="white"/>
<path d="M48.0867 6.99679H47.0211L45.9453 3.29044H45.8641L44.7929 6.99679H43.7374L42.3027 1.96442H43.3446L44.277 5.80441H44.3538L45.4239 1.96442H46.4093L47.4794 5.80441H47.5606L48.4885 1.96442H49.5157L48.0867 6.99679Z" fill="white"/>
<path d="M50.7222 1.96446H51.711V2.76389H51.7878C51.918 2.47677 52.1376 2.23607 52.416 2.07536C52.6944 1.91464 53.0178 1.84192 53.341 1.86732C53.5942 1.84891 53.8485 1.88583 54.085 1.97534C54.3215 2.06486 54.5341 2.20467 54.7071 2.38443C54.8802 2.56418 55.0091 2.77927 55.0845 3.01376C55.1599 3.24825 55.1797 3.49613 55.1425 3.73904V6.99677H54.1153V3.98844C54.1153 3.17972 53.7519 2.77754 52.9922 2.77754C52.8202 2.7698 52.6486 2.79809 52.489 2.86049C52.3294 2.92288 52.1857 3.0179 52.0676 3.13903C51.9496 3.26016 51.86 3.40453 51.8051 3.56226C51.7502 3.71998 51.7312 3.88732 51.7494 4.05282V6.99683H50.7222L50.7222 1.96446Z" fill="white"/>
<path d="M56.7797 0H57.8069V6.99686H56.7797V0Z" fill="white"/>
<path d="M59.2347 4.47849C59.202 4.14775 59.2411 3.81406 59.3496 3.49882C59.4581 3.18357 59.6336 2.89372 59.8647 2.64787C60.0958 2.40202 60.3775 2.20558 60.6918 2.07116C61.006 1.93675 61.3459 1.86731 61.6895 1.86731C62.0331 1.86731 62.373 1.93675 62.6872 2.07116C63.0015 2.20558 63.2832 2.40202 63.5143 2.64787C63.7455 2.89372 63.9209 3.18357 64.0294 3.49882C64.1379 3.81406 64.177 4.14775 64.1443 4.47849C64.1776 4.80955 64.1389 5.14369 64.0307 5.45943C63.9225 5.77517 63.7472 6.06553 63.516 6.31186C63.2848 6.55818 63.0029 6.75501 62.6883 6.88971C62.3737 7.02442 62.0335 7.094 61.6895 7.094C61.3455 7.094 61.0053 7.02442 60.6907 6.88971C60.3761 6.75501 60.0942 6.55818 59.863 6.31186C59.6318 6.06553 59.4565 5.77517 59.3483 5.45943C59.2401 5.14369 59.2014 4.80955 59.2347 4.47849ZM63.0872 4.47849C63.0872 3.38765 62.5804 2.74974 61.6909 2.74974C60.798 2.74974 60.2958 3.38765 60.2958 4.4785C60.2958 5.57807 60.7981 6.21107 61.6909 6.21107C62.5804 6.21105 63.0872 5.57369 63.0872 4.47849H63.0872Z" fill="white"/>
<path d="M65.2255 5.57376C65.2255 4.66791 65.9231 4.14569 67.1614 4.07147L68.5713 3.9929V3.55853C68.5713 3.02702 68.2078 2.72689 67.5057 2.72689C66.9323 2.72689 66.5349 2.93044 66.4209 3.28623H65.4264C65.5314 2.42185 66.3724 1.86743 67.5531 1.86743C68.858 1.86743 69.5939 2.49551 69.5939 3.55853V6.99693H68.6051V6.28972H68.5238C68.3589 6.5434 68.1272 6.7502 67.8526 6.88902C67.5779 7.02783 67.2701 7.09368 66.9605 7.07984C66.742 7.10182 66.5211 7.07928 66.3122 7.01368C66.1033 6.94808 65.9109 6.84087 65.7474 6.69897C65.5839 6.55708 65.453 6.38364 65.3632 6.18983C65.2733 5.99603 65.2264 5.78616 65.2255 5.57376ZM68.5713 5.14375V4.72303L67.3002 4.80161C66.5835 4.84799 66.2584 5.08373 66.2584 5.52737C66.2584 5.98029 66.6647 6.24386 67.2235 6.24386C67.3872 6.25989 67.5526 6.2439 67.7098 6.19686C67.867 6.14982 68.0129 6.07269 68.1386 5.97005C68.2643 5.86741 68.3674 5.74136 68.4418 5.59941C68.5161 5.45746 68.5601 5.3025 68.5713 5.14375Z" fill="white"/>
<path d="M70.9443 4.47851C70.9443 2.88836 71.7897 1.88102 73.1048 1.88102C73.4301 1.86652 73.7529 1.94185 74.0355 2.0982C74.3182 2.25454 74.549 2.48544 74.7009 2.7639H74.7777V0H75.8049V6.99685H74.8206V6.20178H74.7393C74.5756 6.47837 74.3368 6.70639 74.0487 6.86116C73.7606 7.01592 73.4342 7.09153 73.1048 7.07979C71.7807 7.07985 70.9443 6.07247 70.9443 4.47851ZM72.0054 4.47851C72.0054 5.54588 72.5258 6.18817 73.3961 6.18817C74.2618 6.18817 74.7969 5.53662 74.7969 4.48288C74.7969 3.43405 74.2562 2.77322 73.3961 2.77322C72.5314 2.77322 72.0053 3.41986 72.0053 4.47851H72.0054Z" fill="white"/>
<path d="M80.0545 4.47851C80.0218 4.1478 80.0609 3.81413 80.1694 3.49889C80.2779 3.18366 80.4533 2.89383 80.6844 2.64798C80.9155 2.40213 81.1972 2.2057 81.5114 2.07128C81.8256 1.93687 82.1655 1.86743 82.5091 1.86743C82.8527 1.86743 83.1925 1.93687 83.5067 2.07128C83.821 2.2057 84.1026 2.40213 84.3338 2.64798C84.5649 2.89383 84.7403 3.18366 84.8488 3.49889C84.9572 3.81413 84.9964 4.1478 84.9636 4.47851C84.997 4.80956 84.9583 5.1437 84.8501 5.45944C84.7419 5.77518 84.5666 6.06555 84.3355 6.31188C84.1043 6.55821 83.8224 6.75505 83.5078 6.88976C83.1933 7.02447 82.8531 7.09406 82.5091 7.09406C82.1651 7.09406 81.8248 7.02447 81.5103 6.88976C81.1958 6.75505 80.9138 6.55821 80.6827 6.31188C80.4515 6.06555 80.2762 5.77518 80.168 5.45944C80.0598 5.1437 80.0212 4.80956 80.0545 4.47851ZM83.9071 4.47851C83.9071 3.38768 83.4002 2.74977 82.5108 2.74977C81.6179 2.74977 81.1156 3.38768 81.1156 4.47852C81.1156 5.5781 81.6179 6.21109 82.5108 6.21109C83.4003 6.21108 83.9071 5.57371 83.9071 4.47851Z" fill="white"/>
<path d="M86.3422 1.96446H87.331V2.76389H87.4078C87.538 2.47677 87.7576 2.23607 88.036 2.07536C88.3144 1.91464 88.6378 1.84192 88.961 1.86732C89.2142 1.84891 89.4685 1.88583 89.705 1.97534C89.9415 2.06486 90.1541 2.20467 90.3271 2.38443C90.5002 2.56418 90.6291 2.77927 90.7045 3.01376C90.7799 3.24825 90.7997 3.49613 90.7625 3.73904V6.99677H89.7353V3.98844C89.7353 3.17972 89.3718 2.77754 88.6122 2.77754C88.4402 2.7698 88.2686 2.79809 88.109 2.86049C87.9494 2.92288 87.8057 3.0179 87.6876 3.13903C87.5696 3.26016 87.48 3.40453 87.4251 3.56226C87.3702 3.71998 87.3512 3.88732 87.3694 4.05282V6.99683H86.3422V1.96446Z" fill="white"/>
<path d="M96.566 0.711548V1.98737H97.6936V2.82392H96.566V5.41159C96.566 5.93873 96.7906 6.16956 97.3019 6.16956C97.4328 6.16915 97.5636 6.1615 97.6936 6.14664V6.9739C97.5092 7.00581 97.3223 7.02278 97.1349 7.02465C95.9925 7.02465 95.5376 6.63611 95.5376 5.66588V2.82388H94.7114V1.98733H95.5376V0.711548H96.566Z" fill="white"/>
<path d="M99.0976 0H100.116V2.77321H100.197C100.334 2.4834 100.559 2.24134 100.843 2.08002C101.127 1.9187 101.456 1.84597 101.784 1.87173C102.036 1.85847 102.288 1.89914 102.522 1.99083C102.755 2.08252 102.965 2.22297 103.137 2.40216C103.308 2.58135 103.436 2.79486 103.512 3.02747C103.588 3.26007 103.61 3.50604 103.577 3.74781V6.99687H102.548V3.99282C102.548 3.18902 102.161 2.78193 101.435 2.78193C101.259 2.76793 101.081 2.79139 100.915 2.85069C100.749 2.90998 100.598 3.00366 100.473 3.12518C100.348 3.24671 100.253 3.39313 100.192 3.55422C100.132 3.7153 100.109 3.88715 100.125 4.05775V6.99684H99.0976L99.0976 0Z" fill="white"/>
<path d="M109.566 5.63812C109.426 6.09805 109.124 6.49589 108.712 6.76204C108.3 7.02819 107.804 7.1457 107.311 7.09402C106.968 7.10277 106.627 7.03927 106.312 6.90792C105.997 6.77658 105.715 6.58053 105.487 6.33339C105.258 6.08625 105.088 5.79394 104.987 5.47675C104.887 5.15956 104.86 4.82508 104.906 4.49654C104.861 4.16698 104.889 3.83178 104.989 3.51364C105.089 3.1955 105.258 2.90183 105.486 2.65253C105.713 2.40323 105.994 2.20411 106.308 2.06865C106.622 1.93319 106.962 1.86456 107.306 1.86739C108.754 1.86739 109.628 2.82404 109.628 4.40429V4.75084H105.953V4.8065C105.937 4.99117 105.961 5.17706 106.023 5.35224C106.086 5.52742 106.186 5.68802 106.316 5.82376C106.447 5.9595 106.605 6.06737 106.781 6.14045C106.957 6.21354 107.147 6.25023 107.339 6.24817C107.585 6.27669 107.834 6.23391 108.054 6.12528C108.275 6.01664 108.457 5.84706 108.577 5.63809L109.566 5.63812ZM105.953 4.01633H108.582C108.595 3.84743 108.571 3.67778 108.512 3.51828C108.453 3.35878 108.36 3.21296 108.24 3.09019C108.119 2.96741 107.973 2.8704 107.811 2.80539C107.65 2.74037 107.476 2.70879 107.301 2.71267C107.123 2.71051 106.947 2.74276 106.782 2.80752C106.617 2.87228 106.468 2.96823 106.342 3.08973C106.217 3.21123 106.118 3.3558 106.051 3.51494C105.984 3.67408 105.95 3.84456 105.953 4.01633H105.953Z" fill="white"/>
</svg>
