<svg width="109" height="29" viewBox="0 0 109 29" fill="none" xmlns="http://www.w3.org/2000/svg">
<path d="M35.2259 4.46785C35.2259 5.33224 34.991 6.02169 34.521 6.52592C33.9947 7.13305 33.2993 7.44176 32.4534 7.44176C31.6358 7.44176 30.9497 7.13305 30.3764 6.51563C29.8031 5.89821 29.5212 5.12643 29.5212 4.22088C29.5212 3.30504 29.8031 2.54355 30.3764 1.92613C30.9497 1.30871 31.6358 1 32.4534 1C32.8576 1 33.2429 1.08232 33.6094 1.25726C33.9759 1.43219 34.2673 1.65858 34.4929 1.94671L33.9947 2.4921C33.6188 2.00845 33.1113 1.76149 32.4534 1.76149C31.8613 1.76149 31.3444 1.98787 30.9121 2.45094C30.4798 2.90372 30.2636 3.50056 30.2636 4.23117C30.2636 4.96179 30.4798 5.55863 30.9121 6.0114C31.3444 6.46418 31.8613 6.70086 32.4534 6.70086C33.0831 6.70086 33.6094 6.47447 34.0323 6.0114C34.3049 5.71298 34.4647 5.29108 34.5023 4.75598H32.4534V4.01507H35.1883C35.2071 4.16943 35.2259 4.32378 35.2259 4.46785Z" fill="white" stroke="white" stroke-width="0.2" stroke-miterlimit="10"/>
<path d="M39.5585 1.89521H36.9928V3.85038H39.3047V4.59129H36.9928V6.54645H39.5585V7.30794H36.2691V1.13373H39.5585V1.89521Z" fill="white" stroke="white" stroke-width="0.2" stroke-miterlimit="10"/>
<path d="M42.6128 7.308H41.8891V1.89528H40.3102V1.13379H44.1823V1.89528H42.6034V7.308H42.6128Z" fill="white" stroke="white" stroke-width="0.2" stroke-miterlimit="10"/>
<path d="M46.9924 7.30794V1.13373H47.7161V7.30794H46.9924Z" fill="white" stroke="white" stroke-width="0.2" stroke-miterlimit="10"/>
<path d="M50.9303 7.30794H50.2066V1.89521H48.6277V1.13373H52.4998V1.89521H50.9209V7.30794H50.9303Z" fill="white" stroke="white" stroke-width="0.2" stroke-miterlimit="10"/>
<path d="M59.84 6.50534C59.2855 7.13305 58.5995 7.44176 57.7724 7.44176C56.9454 7.44176 56.2593 7.13305 55.7048 6.50534C55.1503 5.87763 54.8777 5.11614 54.8777 4.22088C54.8777 3.32562 55.1503 2.55384 55.7048 1.93642C56.2593 1.30871 56.9454 1 57.7724 1C58.5901 1 59.2761 1.30871 59.84 1.93642C60.3945 2.56413 60.6765 3.32562 60.6765 4.22088C60.6671 5.12643 60.3945 5.88792 59.84 6.50534ZM56.2405 5.99082C56.654 6.45389 57.1709 6.68027 57.7724 6.68027C58.3739 6.68027 58.8908 6.45389 59.3043 5.99082C59.7178 5.52775 59.934 4.9412 59.934 4.22088C59.934 3.50056 59.7272 2.91401 59.3043 2.45094C58.8908 1.98787 58.3739 1.76149 57.7724 1.76149C57.1709 1.76149 56.654 1.98787 56.2405 2.45094C55.827 2.91401 55.6108 3.50056 55.6108 4.22088C55.6108 4.9412 55.827 5.52775 56.2405 5.99082Z" fill="white" stroke="white" stroke-width="0.2" stroke-miterlimit="10"/>
<path d="M61.6912 7.30794V1.13373H62.5746L65.3189 5.93932H65.3471L65.3189 4.74564V1.13373H66.0426V7.30794H65.2907L62.4242 2.27596H62.396L62.4242 3.46964V7.30794H61.6912Z" fill="white" stroke="white" stroke-width="0.2" stroke-miterlimit="10"/>
<path d="M54.6989 16.3121C52.4903 16.3121 50.6859 18.154 50.6859 20.6855C50.6859 23.2066 52.4903 25.0589 54.6989 25.0589C56.9075 25.0589 58.712 23.2066 58.712 20.6855C58.712 18.154 56.9075 16.3121 54.6989 16.3121ZM54.6989 23.3404C53.4865 23.3404 52.4433 22.2496 52.4433 20.6855C52.4433 19.111 53.4865 18.0305 54.6989 18.0305C55.9113 18.0305 56.9545 19.111 56.9545 20.6855C56.9545 22.2496 55.9019 23.3404 54.6989 23.3404ZM45.9398 16.3121C43.7312 16.3121 41.9267 18.154 41.9267 20.6855C41.9267 23.2066 43.7312 25.0589 45.9398 25.0589C48.1483 25.0589 49.9528 23.2066 49.9528 20.6855C49.9528 18.154 48.1483 16.3121 45.9398 16.3121ZM45.9398 23.3404C44.7274 23.3404 43.6842 22.2496 43.6842 20.6855C43.6842 19.111 44.7274 18.0305 45.9398 18.0305C47.1521 18.0305 48.1953 19.111 48.1953 20.6855C48.1953 22.2496 47.1521 23.3404 45.9398 23.3404ZM35.5265 17.6601V19.5124H39.5865C39.4644 20.5517 39.1448 21.3235 38.6655 21.8483C38.0734 22.4966 37.1524 23.2066 35.5359 23.2066C33.036 23.2066 31.0811 21.0045 31.0811 18.2672C31.0811 15.53 33.036 13.3279 35.5359 13.3279C36.8798 13.3279 37.8667 13.9041 38.5903 14.6553L39.7839 13.3484C38.7689 12.2885 37.4249 11.4756 35.5265 11.4756C32.1055 11.4756 29.2297 14.5215 29.2297 18.2775C29.2297 22.0232 32.1055 25.0794 35.5265 25.0794C37.378 25.0794 38.7689 24.4209 39.8591 23.1757C40.9775 21.9512 41.3252 20.2224 41.3252 18.8332C41.3252 18.401 41.297 17.9997 41.2312 17.6704H35.5265V17.6601ZM78.11 19.1007C77.781 18.1232 76.766 16.3121 74.689 16.3121C72.6308 16.3121 70.9203 18.082 70.9203 20.6855C70.9203 23.1346 72.612 25.0589 74.8864 25.0589C76.719 25.0589 77.781 23.8343 78.2133 23.1243L76.8506 22.1261C76.3995 22.8567 75.7792 23.3404 74.8864 23.3404C73.9935 23.3404 73.3544 22.8876 72.9503 22.0129L78.2979 19.5947L78.11 19.1007ZM72.659 20.562C72.612 18.8744 73.8526 18.01 74.7454 18.01C75.4409 18.01 76.0329 18.3907 76.2303 18.9361L72.659 20.562ZM68.317 24.8016H70.0745V11.9387H68.317V24.8016ZM65.4411 17.2896H65.3753C64.9806 16.7751 64.2287 16.3121 63.2701 16.3121C61.2683 16.3121 59.4356 18.2364 59.4356 20.706C59.4356 23.1551 61.2683 25.0691 63.2701 25.0691C64.2193 25.0691 64.9806 24.6061 65.3753 24.071H65.4317V24.6987C65.4317 26.376 64.6141 27.2713 63.2983 27.2713C62.2269 27.2713 61.5596 26.4275 61.2871 25.7174L59.7552 26.4172C60.1969 27.58 61.3623 29.0001 63.2983 29.0001C65.3565 29.0001 67.0952 27.6726 67.0952 24.4414V16.5796H65.4317V17.2896H65.4411ZM63.4205 23.3404C62.2081 23.3404 61.1931 22.229 61.1931 20.706C61.1931 19.1625 62.2081 18.0408 63.4205 18.0408C64.6141 18.0408 65.5539 19.1728 65.5539 20.706C65.5633 22.229 64.6235 23.3404 63.4205 23.3404ZM86.3428 11.9387H82.1418V24.8016H83.8993V19.924H86.3522C88.2977 19.924 90.2055 18.3804 90.2055 15.9313C90.2055 13.4822 88.2789 11.9387 86.3428 11.9387ZM86.3804 18.1334H83.8899V13.7189H86.3804C87.6962 13.7189 88.4386 14.9126 88.4386 15.921C88.4386 16.9295 87.6962 18.1334 86.3804 18.1334ZM97.226 16.2915C95.9572 16.2915 94.6415 16.9089 94.0964 18.2569L95.6565 18.967C95.9854 18.2569 96.6057 18.0203 97.2542 18.0203C98.1564 18.0203 99.0868 18.6171 99.0962 19.677V19.8108C98.7767 19.6153 98.1 19.3168 97.2636 19.3168C95.5813 19.3168 93.8802 20.3253 93.8802 22.2084C93.8802 23.9269 95.2524 25.0383 96.7937 25.0383C97.9685 25.0383 98.6263 24.462 99.0304 23.7828H99.0868V24.781H100.779V19.8519C100.788 17.5675 99.2278 16.2915 97.226 16.2915ZM97.0098 23.3404C96.4365 23.3404 95.6377 23.0214 95.6377 22.2496C95.6377 21.2617 96.6339 20.881 97.4985 20.881C98.2692 20.881 98.6357 21.0662 99.0962 21.3132C98.9647 22.4966 98.0248 23.3404 97.0098 23.3404ZM106.953 16.5693L104.942 22.1467H104.886L102.799 16.5693H100.91L104.04 24.3694L102.254 28.7016H104.087L108.908 16.5693H106.953ZM91.1641 24.8016H92.9216V11.9387H91.1641V24.8016Z" fill="white"/>
<path d="M0.470589 1.68953C0.19804 2.00853 0.038269 2.50246 0.038269 3.13018V25.8924C0.038269 26.5304 0.19804 27.0244 0.470589 27.3331L0.536377 27.4051L12.1808 14.6657V14.5113V14.357L0.536377 1.61749L0.470589 1.68953Z" fill="url(#paint0_linear_3048_50)"/>
<path d="M16.0623 18.9155L12.1808 14.6656V14.5113V14.3569L16.0623 10.107L16.1469 10.1584L20.7426 13.0192C22.0584 13.8321 22.0584 15.1698 20.7426 15.9931L16.1469 18.8538L16.0623 18.9155Z" fill="url(#paint1_linear_3048_50)"/>
<path d="M16.1472 18.8539L12.1811 14.5114L0.470886 27.3331C0.903206 27.8374 1.61747 27.8991 2.42572 27.3949L16.1472 18.8539Z" fill="url(#paint2_linear_3048_50)"/>
<path d="M16.1473 10.1687L2.41644 1.6277C1.6082 1.12348 0.893928 1.18522 0.461609 1.68945L12.1812 14.5112L16.1473 10.1687Z" fill="url(#paint3_linear_3048_50)"/>
<path opacity="0.2" d="M16.063 18.7612L2.41675 27.2508C1.65549 27.7241 0.96942 27.6933 0.537101 27.2611L0.471313 27.3331L0.537101 27.4051C0.978819 27.8373 1.65549 27.8682 2.41675 27.3948L16.1476 18.8538L16.063 18.7612Z" fill="#2E3A59"/>
<path opacity="0.12" d="M0.471015 27.1889C0.198467 26.8699 0.0386963 26.376 0.0386963 25.7483V25.9026C0.0386963 26.5406 0.198467 27.0346 0.471015 27.3433L0.536802 27.2713L0.471015 27.1889Z" fill="#2E3A59"/>
<path opacity="0.12" d="M20.7427 15.8491L16.053 18.7613L16.1376 18.8539L20.7333 15.9932C21.3912 15.5816 21.7201 15.0465 21.7201 14.5114C21.6731 14.995 21.3442 15.4786 20.7427 15.8491Z" fill="#2E3A59"/>
<path opacity="0.25" d="M2.41615 1.77194L20.7427 13.1737C21.3348 13.5441 21.6732 14.0175 21.7295 14.5114C21.7295 13.9763 21.4006 13.4309 20.7427 13.0296L2.41615 1.62788C1.10039 0.81494 0.0289917 1.4941 0.0289917 3.14056V3.29492C0.0289917 1.63817 1.10979 0.959006 2.41615 1.77194Z" fill="white"/>
<defs>
<linearGradient id="paint0_linear_3048_50" x1="11.1467" y1="2.89319" x2="-6.0522" y2="18.6011" gradientUnits="userSpaceOnUse">
<stop stop-color="#00A0FF"/>
<stop offset="0.00657445" stop-color="#00A1FF"/>
<stop offset="0.2601" stop-color="#00BEFF"/>
<stop offset="0.5122" stop-color="#00D2FF"/>
<stop offset="0.7604" stop-color="#00DFFF"/>
<stop offset="1" stop-color="#00E3FF"/>
</linearGradient>
<linearGradient id="paint1_linear_3048_50" x1="22.4573" y1="14.5127" x2="-0.283576" y2="14.5127" gradientUnits="userSpaceOnUse">
<stop stop-color="#FFE000"/>
<stop offset="0.4087" stop-color="#FFBD00"/>
<stop offset="0.7754" stop-color="#FFA500"/>
<stop offset="1" stop-color="#FF9C00"/>
</linearGradient>
<linearGradient id="paint2_linear_3048_50" x1="13.9921" y1="16.8741" x2="-9.33099" y2="38.1753" gradientUnits="userSpaceOnUse">
<stop stop-color="#FF3A44"/>
<stop offset="1" stop-color="#C31162"/>
</linearGradient>
<linearGradient id="paint3_linear_3048_50" x1="-2.48258" y1="-5.88816" x2="7.93223" y2="3.62366" gradientUnits="userSpaceOnUse">
<stop stop-color="#32A071"/>
<stop offset="0.0685" stop-color="#2DA771"/>
<stop offset="0.4762" stop-color="#15CF74"/>
<stop offset="0.8009" stop-color="#06E775"/>
<stop offset="1" stop-color="#00F076"/>
</linearGradient>
</defs>
</svg>
