<svg width="12" height="12" viewBox="0 0 12 12" fill="none" xmlns="http://www.w3.org/2000/svg">
<path d="M11.8166 4.59664C11.7764 4.46691 11.6695 4.37236 11.5407 4.35278L7.92401 3.80182L6.30651 0.366223C6.24896 0.243922 6.13013 0.166504 6.00004 0.166504C5.86993 0.166504 5.75112 0.243922 5.69354 0.366223L4.07598 3.80182L0.459329 4.35278C0.330609 4.37236 0.223627 4.46691 0.183432 4.59662C0.143214 4.72635 0.176756 4.86874 0.269929 4.96393L2.8869 7.63817L2.2692 11.4143C2.24719 11.5487 2.29992 11.6846 2.40517 11.7648C2.46471 11.8101 2.53524 11.8332 2.6061 11.8332C2.66051 11.8332 2.71511 11.8196 2.7651 11.792L6.00002 10.0091L9.23479 11.792C9.34998 11.8555 9.4895 11.8449 9.59475 11.7647C9.7 11.6846 9.75275 11.5487 9.73076 11.4143L9.11286 7.63817L11.7301 4.9639C11.8233 4.86874 11.8568 4.72635 11.8166 4.59664Z" fill="#FFA800"/>
</svg>
