<svg width="16" height="16" viewBox="0 0 16 16" fill="none" xmlns="http://www.w3.org/2000/svg">
<path d="M15.4785 6.19589C15.4268 6.02909 15.2893 5.90753 15.1238 5.88235L10.4737 5.17398L8.39406 0.756782C8.32006 0.599537 8.16728 0.5 8.00002 0.5C7.83274 0.5 7.67998 0.599537 7.60595 0.756782L5.52623 5.17398L0.876254 5.88235C0.710757 5.90753 0.573209 6.02909 0.521529 6.19586C0.46982 6.36265 0.512945 6.54573 0.63274 6.66811L3.99741 10.1064L3.20324 14.9615C3.17494 15.1343 3.24273 15.3089 3.37805 15.412C3.4546 15.4703 3.54528 15.5 3.63639 15.5C3.70635 15.5 3.77654 15.4825 3.84082 15.4471L7.99999 13.1548L12.159 15.447C12.3071 15.5286 12.4865 15.5151 12.6218 15.412C12.7571 15.3089 12.8249 15.1342 12.7967 14.9614L12.0022 10.1064L15.3673 6.66808C15.487 6.54573 15.5302 6.36265 15.4785 6.19589Z" fill="white"/>
</svg>
