<svg width="12" height="12" viewBox="0 0 12 12" fill="none" xmlns="http://www.w3.org/2000/svg">
<path d="M11.8166 4.59676C11.7764 4.46703 11.6694 4.37249 11.5407 4.3529L7.92397 3.80194L6.30648 0.366345C6.24893 0.244044 6.1301 0.166626 6.00001 0.166626C5.8699 0.166626 5.75109 0.244044 5.69351 0.366345L4.07595 3.80194L0.459299 4.3529C0.330579 4.37249 0.223597 4.46703 0.183401 4.59674C0.143184 4.72647 0.176725 4.86886 0.269898 4.96405L2.88687 7.6383L2.26917 11.4144C2.24716 11.5489 2.29989 11.6847 2.40514 11.7649C2.46468 11.8102 2.5352 11.8333 2.60607 11.8333C2.66048 11.8333 2.71508 11.8197 2.76507 11.7921L5.99999 10.0093L9.23476 11.7921C9.34995 11.8556 9.48947 11.845 9.59472 11.7649C9.69997 11.6847 9.75272 11.5488 9.73073 11.4144L9.11283 7.6383L11.7301 4.96402C11.8232 4.86886 11.8568 4.72647 11.8166 4.59676Z" fill="#FFA800"/>
</svg>
